<svg xmlns="http://www.w3.org/2000/svg" width="135.813" height="103.794" viewBox="0 0 135.813 103.794">
  <g id="Raggruppa_50" data-name="Raggruppa 50" transform="translate(-580 -6688.285)" opacity="0.6">
    <g id="Raggruppa_49" data-name="Raggruppa 49" transform="translate(-75.187 36)">
      <path id="Tracciato_1" data-name="Tracciato 1" d="M306.863,284.955a1.307,1.307,0,0,1-.151.66,1.148,1.148,0,0,1-.4.413,1.716,1.716,0,0,1-.557.215,3.2,3.2,0,0,1-.644.063h-1.653v-2.67h1.272a7.115,7.115,0,0,1,.731.04,2.176,2.176,0,0,1,.691.183,1.323,1.323,0,0,1,.508.406,1.115,1.115,0,0,1,.2.691m2.257,1.653a3.829,3.829,0,0,0,.318-1.653,3.594,3.594,0,0,0-.342-1.661,2.776,2.776,0,0,0-.922-1.049,3.76,3.76,0,0,0-1.359-.549,8.275,8.275,0,0,0-1.653-.159h-4.18v7.4s0,4.138.006,4.143h2.474V288.4h1.812a7.718,7.718,0,0,0,1.653-.167,3.543,3.543,0,0,0,1.319-.564,2.709,2.709,0,0,0,.874-1.065m12.271.556a4.131,4.131,0,0,1-.246,1.455,3.344,3.344,0,0,1-.707,1.145,3.231,3.231,0,0,1-1.1.755,3.967,3.967,0,0,1-2.877,0,3.227,3.227,0,0,1-1.1-.755,3.33,3.33,0,0,1-.707-1.145,4.4,4.4,0,0,1,0-2.9,3.315,3.315,0,0,1,.707-1.152,3.227,3.227,0,0,1,1.1-.755,3.962,3.962,0,0,1,2.877,0,3.231,3.231,0,0,1,1.1.755,3.329,3.329,0,0,1,.707,1.152,4.15,4.15,0,0,1,.246,1.446m2.122,2.448a6.84,6.84,0,0,0,0-4.9,5.371,5.371,0,0,0-1.264-1.868,5.575,5.575,0,0,0-1.923-1.184,7.362,7.362,0,0,0-4.864,0,5.578,5.578,0,0,0-1.923,1.184,5.382,5.382,0,0,0-1.264,1.868,6.84,6.84,0,0,0,0,4.9,5.374,5.374,0,0,0,1.264,1.868,5.565,5.565,0,0,0,1.923,1.184,7.362,7.362,0,0,0,4.864,0,5.561,5.561,0,0,0,1.923-1.184,5.363,5.363,0,0,0,1.264-1.868m3.664,3.179h7.932V290.5h-5.452v-2.289h4.88v-2.289h-4.88v-2.1h5.166v-2.289h-7.646Zm16.007-9.061H346.4v-2.194h-8.9v2.194H340.7v9.061h2.48Zm11.922,1.208a1.135,1.135,0,0,1-.2.715,1.168,1.168,0,0,1-.5.374,2.218,2.218,0,0,1-.675.143q-.374.024-.707.024h-1.462v-2.559h1.621a5.1,5.1,0,0,1,.684.048,1.979,1.979,0,0,1,.62.183,1.165,1.165,0,0,1,.445.389,1.188,1.188,0,0,1,.175.684m3,7.853-2.861-4.753a2.79,2.79,0,0,0,1.812-1.057,3.3,3.3,0,0,0,.62-2.027,3.551,3.551,0,0,0-.342-1.645,2.781,2.781,0,0,0-.922-1.05,3.881,3.881,0,0,0-1.351-.556,7.7,7.7,0,0,0-1.629-.167h-4.355v11.254h2.48v-4.5h1.224l2.353,4.5Zm11.668-5.627a4.131,4.131,0,0,1-.247,1.455,3.337,3.337,0,0,1-.707,1.145,3.233,3.233,0,0,1-1.1.755,3.969,3.969,0,0,1-2.877,0,3.231,3.231,0,0,1-1.1-.755,3.33,3.33,0,0,1-.707-1.145,4.388,4.388,0,0,1,0-2.9,3.315,3.315,0,0,1,.707-1.152,3.231,3.231,0,0,1,1.1-.755,3.963,3.963,0,0,1,2.877,0,3.233,3.233,0,0,1,1.1.755,3.322,3.322,0,0,1,.707,1.152,4.15,4.15,0,0,1,.247,1.446m2.122,2.448a6.84,6.84,0,0,0,0-4.9,5.383,5.383,0,0,0-1.264-1.868,5.575,5.575,0,0,0-1.923-1.184,7.362,7.362,0,0,0-4.864,0,5.57,5.57,0,0,0-1.923,1.184,5.372,5.372,0,0,0-1.264,1.868,6.84,6.84,0,0,0,0,4.9,5.364,5.364,0,0,0,1.264,1.868,5.557,5.557,0,0,0,1.923,1.184,7.362,7.362,0,0,0,4.864,0,5.562,5.562,0,0,0,1.923-1.184,5.375,5.375,0,0,0,1.264-1.868m10.992,3.179h3.243V281.537h-2.48v7.821h-.032l-4.785-7.821h-3.37v11.254h2.48V284.78h.032Zm6.93,0h2.48V281.537h-2.48Zm15.435-9.887a3.833,3.833,0,0,0-.827-.779,4.523,4.523,0,0,0-.961-.509,5.4,5.4,0,0,0-1.018-.278,5.953,5.953,0,0,0-.993-.088,6.942,6.942,0,0,0-2.432.413,5.57,5.57,0,0,0-1.923,1.184,5.377,5.377,0,0,0-1.264,1.868,6.84,6.84,0,0,0,0,4.9,5.369,5.369,0,0,0,1.264,1.868,5.557,5.557,0,0,0,1.923,1.184,6.931,6.931,0,0,0,2.432.413,5.607,5.607,0,0,0,2.257-.477,4.276,4.276,0,0,0,.8-.453l-1.1-2.508a2.678,2.678,0,0,1-.925.831,2.794,2.794,0,0,1-1.351.318,2.918,2.918,0,0,1-1.248-.27,3.058,3.058,0,0,1-1.009-.755,3.612,3.612,0,0,1-.676-1.145,4.389,4.389,0,0,1,0-2.9,3.518,3.518,0,0,1,.683-1.152,3.085,3.085,0,0,1,2.329-1.025,2.989,2.989,0,0,1,1.232.238,2.435,2.435,0,0,1,.9.684Z" transform="translate(354.205 6460.671)" fill="#fff"/>
      <path id="Tracciato_2" data-name="Tracciato 2" d="M603.722,290.162v-2.194h-8.9v2.194h3.211v9.061h2.48v-9.061Z" transform="translate(187.278 6456.855)" fill="#fff"/>
      <path id="Tracciato_3" data-name="Tracciato 3" d="M578.186,291.371a1.135,1.135,0,0,1-.2.715,1.172,1.172,0,0,1-.5.374,2.234,2.234,0,0,1-.676.143q-.374.023-.708.023h-1.462v-2.559h1.621a5.1,5.1,0,0,1,.684.047,1.968,1.968,0,0,1,.62.184,1.166,1.166,0,0,1,.445.389,1.187,1.187,0,0,1,.175.684m1.955,2.042a3.3,3.3,0,0,0,.62-2.026,3.559,3.559,0,0,0-.342-1.646,2.784,2.784,0,0,0-.922-1.05,3.883,3.883,0,0,0-1.351-.556,7.727,7.727,0,0,0-1.629-.166h-4.355v11.254h2.48v-4.5h1.224l2.353,4.5h2.972l-2.861-4.753a2.79,2.79,0,0,0,1.812-1.057" transform="translate(200.15 6456.855)" fill="#fff"/>
      <path id="Tracciato_4" data-name="Tracciato 4" d="M550.438,294.74h-2.75l1.367-3.5Zm4.61,4.482-4.9-11.254H548.1l-3.483,8.059,1.37,3.151.92-2.339h4.371l.97,2.384Z" transform="translate(215.797 6456.855)" fill="#fff"/>
    </g>
    <path id="Tracciato_5" data-name="Tracciato 5" d="M311.734,343.085H243.706v-9.911l-17.247.033,30.708-70.838h19.278ZM248.486,338.3h55.938L273.316,267.15H260.307L233.75,328.411l9.955-.019v-8.318a40.806,40.806,0,0,1,.786-8.139,19.812,19.812,0,0,1,2.889-7.122,15.2,15.2,0,0,1,5.721-5.033,19.006,19.006,0,0,1,8.767-1.841,20.158,20.158,0,0,1,8.666,1.7,14.914,14.914,0,0,1,5.823,4.789,18.769,18.769,0,0,1,2.995,6.963,35.964,35.964,0,0,1,.741,5.407l0,.082-.009,2.033,13.243.006.012,14.285-44.859-.031Zm0-9.913,40.073.029,0-4.72-13.27-.006.032-6.672a31.15,31.15,0,0,0-.634-4.607,14.042,14.042,0,0,0-2.213-5.205,10.184,10.184,0,0,0-3.988-3.252,15.494,15.494,0,0,0-6.612-1.234,14.361,14.361,0,0,0-6.57,1.307,10.483,10.483,0,0,0-3.95,3.452,15.067,15.067,0,0,0-2.173,5.412,36.07,36.07,0,0,0-.69,7.182Z" transform="translate(378.541 6425.916)" fill="#fff"/>
  </g>
</svg>
