<svg xmlns="http://www.w3.org/2000/svg" width="18.319" height="16.703" viewBox="0 0 18.319 16.703">
  <g id="Tracciato_50" data-name="Tracciato 50" fill="none">
    <path d="M9.16,16.7C4.235,13.368,1.652,10.334.592,7.795-2.246.99,5.86-2.265,9.16,1.753c3.3-4.017,11.405-.763,8.567,6.042C16.668,10.334,14.085,13.368,9.16,16.7Z" stroke="none"/>
    <path d="M 9.159711837768555 14.26301574707031 C 13.50514125823975 11.12327098846436 15.21662616729736 8.61811351776123 15.88129234313965 7.024897575378418 C 16.47491264343262 5.601467132568359 16.46346282958984 4.361067295074463 15.84816265106201 3.437807321548462 C 15.26607322692871 2.564377307891846 14.14382266998291 2.000007390975952 12.98908233642578 2.000007390975952 C 12.44962310791016 2.000007390975952 11.43558311462402 2.132777452468872 10.70522308349609 3.021987438201904 L 9.159712791442871 4.903637409210205 L 7.614212989807129 3.021997451782227 C 6.883842945098877 2.132777452468872 5.869792938232422 2.000007390975952 5.33033275604248 2.000007390975952 C 4.17576265335083 2.000007390975952 3.053582906723022 2.564427375793457 2.471442699432373 3.437937259674072 C 1.856102824211121 4.361277103424072 1.844582796096802 5.601627349853516 2.438052892684937 7.024667263031006 C 3.102802753448486 8.618105888366699 4.814276695251465 11.12327098846436 9.159711837768555 14.26301574707031 M 9.159712791442871 16.70300674438477 C 4.234592914581299 13.36795711517334 1.651562809944153 10.3339672088623 0.5922327637672424 7.794707298278809 C -2.245676755905151 0.9898085594177246 5.860232830047607 -2.264503717422485 9.159712791442871 1.752577304840088 C 12.45918369293213 -2.26450252532959 20.56510353088379 0.98980712890625 17.72720336914062 7.794707298278809 C 16.66786193847656 10.3339672088623 14.0848331451416 13.36795711517334 9.159712791442871 16.70300674438477 Z" stroke="none" fill="#4e4e4e"/>
  </g>
</svg>
