<svg xmlns="http://www.w3.org/2000/svg" width="25.373" height="25.367" viewBox="0 0 25.373 25.367">
  <path id="Icon_awesome-instagram" data-name="Icon awesome-instagram" d="M12.684,8.417a6.5,6.5,0,1,0,6.5,6.5A6.493,6.493,0,0,0,12.684,8.417Zm0,10.732a4.228,4.228,0,1,1,4.228-4.228,4.236,4.236,0,0,1-4.228,4.228Zm8.287-11a1.517,1.517,0,1,1-1.517-1.517A1.513,1.513,0,0,1,20.97,8.151Zm4.307,1.54a7.507,7.507,0,0,0-2.049-5.315,7.556,7.556,0,0,0-5.315-2.049c-2.094-.119-8.372-.119-10.466,0A7.546,7.546,0,0,0,2.133,4.37,7.532,7.532,0,0,0,.084,9.685c-.119,2.094-.119,8.372,0,10.466a7.507,7.507,0,0,0,2.049,5.315,7.566,7.566,0,0,0,5.315,2.049c2.094.119,8.372.119,10.466,0a7.507,7.507,0,0,0,5.315-2.049,7.556,7.556,0,0,0,2.049-5.315c.119-2.094.119-8.366,0-10.46ZM22.572,22.4a4.281,4.281,0,0,1-2.411,2.411c-1.67.662-5.632.509-7.477.509s-5.813.147-7.477-.509A4.281,4.281,0,0,1,2.8,22.4c-.662-1.67-.509-5.632-.509-7.477S2.139,9.108,2.8,7.444A4.281,4.281,0,0,1,5.206,5.032c1.67-.662,5.632-.509,7.477-.509s5.813-.147,7.477.509a4.281,4.281,0,0,1,2.411,2.411c.662,1.67.509,5.632.509,7.477S23.234,20.734,22.572,22.4Z" transform="translate(0.006 -2.238)" fill="#fff"/>
</svg>
