<svg xmlns="http://www.w3.org/2000/svg" width="19.988" height="18.224" viewBox="0 0 19.988 18.224">
  <g id="Tracciato_16" data-name="Tracciato 16" fill="none">
    <path d="M9.994,18.224C4.62,14.586,1.8,11.275.646,8.5-2.45,1.08,6.394-2.471,9.994,1.912c3.6-4.383,12.444-.832,9.348,6.593C18.186,11.275,15.368,14.586,9.994,18.224Z" stroke="none"/>
    <path d="M 9.994080543518066 17.01134872436523 C 14.34677600860596 13.97801971435547 17.25421524047852 10.91191005706787 18.41903114318848 8.119826316833496 C 19.2260799407959 6.184645652770996 19.17646026611328 4.447206020355225 18.27552032470703 3.095345735549927 C 17.41418075561523 1.802885890007019 15.84191036224365 0.9999958276748657 14.17228031158447 0.9999958276748657 C 12.79560089111328 0.9999958276748657 11.58619022369385 1.549375891685486 10.76683044433594 2.546925783157349 L 9.994080543518066 3.487735748291016 L 9.221330642700195 2.546925783157349 C 8.401980400085449 1.549375891685486 7.19256067276001 0.9999958276748657 5.81588077545166 0.9999958276748657 C 4.146440505981445 0.9999958276748657 2.574240446090698 1.802945852279663 1.712840557098389 3.095495939254761 C 0.8118505477905273 4.447445869445801 0.7621605396270752 6.184825897216797 1.569080591201782 8.119715690612793 C 2.733943223953247 10.91190528869629 5.641385078430176 13.97801876068115 9.994080543518066 17.01134872436523 M 9.994080543518066 18.22449493408203 C 4.620330333709717 14.58566570281982 1.802010536193848 11.27529621124268 0.6461705565452576 8.504735946655273 C -2.450239181518555 1.079966306686401 6.394048690795898 -2.470785140991211 9.994080543518066 1.912215828895569 C 13.59410762786865 -2.470783710479736 22.43840026855469 1.079965591430664 19.34199142456055 8.504735946655273 C 18.18614959716797 11.27529621124268 15.36783027648926 14.58566570281982 9.994080543518066 18.22449493408203 Z" stroke="none" fill="#000"/>
  </g>
</svg>
