<svg xmlns="http://www.w3.org/2000/svg" width="24.49" height="24.49" viewBox="0 0 24.49 24.49">
  <path id="Icon_awesome-linkedin" data-name="Icon awesome-linkedin" d="M22.741,2.25h-21A1.757,1.757,0,0,0,0,4.016V24.975A1.757,1.757,0,0,0,1.744,26.74h21a1.761,1.761,0,0,0,1.749-1.766V4.016A1.761,1.761,0,0,0,22.741,2.25ZM7.4,23.242H3.772V11.554H7.407V23.242ZM5.587,9.958a2.1,2.1,0,1,1,2.1-2.1,2.106,2.106,0,0,1-2.1,2.1ZM21.008,23.242h-3.63V17.556c0-1.356-.027-3.1-1.886-3.1-1.891,0-2.181,1.476-2.181,3v5.784H9.681V11.554h3.482v1.6h.049a3.823,3.823,0,0,1,3.438-1.886c3.674,0,4.357,2.422,4.357,5.57Z" transform="translate(0 -2.25)" fill="#fff"/>
</svg>
