<svg id="sound-icn" xmlns="http://www.w3.org/2000/svg" width="28.293" height="26.987" viewBox="0 0 28.293 26.987">
  <path id="Tracciato_27" data-name="Tracciato 27" d="M301.879,293.406c-.262,0-.4-.908-.726-.908s-.4.666-.726.666-.2-2-.605-2-.141,1.755-.424,1.755-.424-3.691-1.029-3.691-.706,2.481-1.089,2.481-.444-5.3-1.15-5.3-.928,1.911-1.271,1.911-.323-4.962-.666-4.962-.343,4.328-.605,4.328-.141-7.535-.787-7.535-.484,8.895-.787,8.895-.222-1.634-.726-1.634-.484,4.538-.908,4.538-.121-2.088-.786-2.088-.686,2.739-.968,2.739-.545-.833-1.089-.833-.726-1.755-1.15-1.755-.646-3.933-1.029-3.933-.646,4.175-1.089,4.175-.383-2.239-.847-2.239-.484,4.585-.666,4.585-.247-.41-.363-.41-.3.726-.545.726-.222-2.3-.545-2.3-.161,2.057-.424,2.057-.182-.3-.484-.3-.121.545-.363.545-.3-.484-.847-.484-.545-1.21-.908-1.21-.282-1.815-.726-1.815c-.382,0-.581,2.994-.9,3.863-.051.139-1.691.069-1.691.373s1.655.259,1.713.437c.306.95.5,3.8.878,3.8.444,0,.363-1.815.726-1.815s.363-1.21.908-1.21.605-.484.847-.484.061.545.363.545.222-.3.484-.3.1,2.057.424,2.057.3-2.3.545-2.3.429.726.545.726.182-.41.363-.41.2,4.585.666,4.585.4-2.239.847-2.239.706,4.175,1.089,4.175.605-3.933,1.029-3.933.605-1.755,1.15-1.755.807-.833,1.089-.833.3,2.739.968,2.739.363-2.087.786-2.087.4,4.538.908,4.538.424-1.634.726-1.634.141,8.895.787,8.895.524-7.535.787-7.535.262,4.328.605,4.328.323-4.962.666-4.962.565,1.911,1.271,1.911.767-5.3,1.15-5.3.484,2.481,1.089,2.481.747-3.691,1.029-3.691.02,1.755.424,1.755.282-2,.605-2,.4.666.726.666.464-.908.726-.908,1.378-.008,1.378-.242S302.141,293.406,301.879,293.406Z" transform="translate(-274.964 -280.154)" fill="#4e4e4e"/>
</svg>
