<svg xmlns="http://www.w3.org/2000/svg" width="24.228" height="17.703" viewBox="0 0 24.228 17.703">
  <g id="video-icn" transform="translate(0.5 0.5)">
    <path id="Unione_2" data-name="Unione 2" d="M-7109.412-3053.3a2.59,2.59,0,0,1-2.588-2.588v-11.527a2.591,2.591,0,0,1,2.588-2.588h12.821a2.591,2.591,0,0,1,2.588,2.588v.566l2.521-1.455a1.791,1.791,0,0,1,1.808,0,1.79,1.79,0,0,1,.9,1.567v10.172a1.789,1.789,0,0,1-.9,1.565,1.8,1.8,0,0,1-.905.245,1.787,1.787,0,0,1-.9-.245l-2.521-1.455v.566a2.59,2.59,0,0,1-2.588,2.588Zm-1.044-14.115v11.527a1.045,1.045,0,0,0,1.044,1.042h12.821a1.044,1.044,0,0,0,1.042-1.042v-11.527a1.044,1.044,0,0,0-1.042-1.042h-12.821A1.045,1.045,0,0,0-7110.456-3067.412Zm19.744.45-3.292,1.9v6.825l3.292,1.9a.253.253,0,0,0,.264,0,.252.252,0,0,0,.132-.227v-10.172a.255.255,0,0,0-.132-.229.278.278,0,0,0-.133-.036A.26.26,0,0,0-7090.711-3066.962Zm-14.911,1.813,6,3.5-6,3.5Z" transform="translate(7112 3070)" fill="#4e4e4e" stroke="rgba(0,0,0,0)" stroke-width="1"/>
  </g>
</svg>
